# xmcd
#
# Track frame offsets:
#	182
#	16920
#	26870
#	43732
#	60807
#	73427
#	90007
#	105232
#	119795
#	134850
#	152382
#	166790
#	180527
#	198032
#	211490
#	222445
#	234870
#	246507
#	263382
#	272857
#	285932
#	303970
#
# Disc length: 4228
#
# Revision: 1
# Processed by: cddbd v1.5.1PL0 Copyright (c) Steve Scherf et al.
# Submitted via: CDex 1.51
# Normalized: r0:DSETVAR1,TDELIM( - )
#
DISCID=2c108216
DTITLE=Various Artist - Onvergetelijke Country Hits CD2
DYEAR=1988
DGENRE=Country
TTITLE0=Linda Ronstadt - You're No Good
TTITLE1=Anne Murray - Snowbird
TTITLE2=Glen Campbell - Boths Sides Now
TTITLE3=Dolly Parton - Down From Dover
TTITLE4=Jim Reeves - I Can't Stop Loving You
TTITLE5=Don Williams - That's The Thing About Love
TTITLE6=Billie Jo Spears - Loving Him Was Easier
TTITLE7=George Jones - Almost Persuaded
TTITLE8=Roger Whittaker - I Don't Believe In If Anymore
TTITLE9=Willie Nelson - Stardust
TTITLE10=Tammy Wynette - Crying In The Rain
TTITLE11=Charlie Rich - Everytime You Touch Me (I Get High)
TTITLE12=George Hamilton IV - Streets Of London
TTITLE13=Lynn Anderson - Top Of The World
TTITLE14=Bobby Goldsboto - Hello Summertime
TTITLE15=Tanya Tucker - You Are So Beautiful
TTITLE16=Dr. Hook - Sing Me A Rainbow
TTITLE17=Crystal Gayle - Dancing The Night Away
TTITLE18=Charlie Pride - Kiss An Angel Good Morning
TTITLE19=Barbara Mandrell - A Very Special Love Song
TTITLE20=Roger Miller - Me And Bobby McGee
TTITLE21=Johnny Cash - Don't Think Twice, It's alright
EXTD=YEAR: 1988
EXTT0=
EXTT1=
EXTT2=
EXTT3=
EXTT4=
EXTT5=
EXTT6=
EXTT7=
EXTT8=
EXTT9=
EXTT10=
EXTT11=
EXTT12=
EXTT13=
EXTT14=
EXTT15=
EXTT16=
EXTT17=
EXTT18=
EXTT19=
EXTT20=
EXTT21=
PLAYORDER=
